<?xml version="1.0" ?><svg id="Layer_1" style="enable-background:new 0 0 74 74;" version="1.1" viewBox="0 0 74 74" xml:space="preserve" xmlns="http://www.w3.org/2000/svg" xmlns:xlink="http://www.w3.org/1999/xlink"><style type="text/css">
	.st0{fill:#2B3033;}
</style><g><path class="st0" d="M28.9,26.7c1.6,4.7,4.1,6.2,6.1,7.1c0.6,0.3,1.3,0.4,1.9,0.4c0.7,0,1.3-0.1,1.9-0.4c2-0.9,4.5-2.4,6.1-7.1   c0.8-0.1,1.4-0.6,1.7-1.4c0.8-2.5,0.8-4.6-0.1-6.4c-0.2-0.5-0.7-0.9-1.2-1c-1.5-5.7-6.1-5.7-8.5-5.7c-2.3,0-7,0-8.5,5.7   c-0.6,0.2-1.1,0.7-1.3,1.3c-0.7,2.1-0.7,4.2,0,6.2C27.5,26.1,28.1,26.7,28.9,26.7z M30.7,21.7c0.7-0.2,1.3-0.9,1.4-1.7   c0.4-3.5,1.7-3.9,4.8-3.9c3.1,0,4.4,0.4,4.8,3.9c0.1,0.8,0.7,1.5,1.5,1.7c0,0.3,0,0.7-0.1,1c-0.8,0.1-1.4,0.7-1.6,1.4   c-1.3,4.7-3.2,5.5-4.3,5.9c-0.2,0.1-0.5,0.1-0.8,0c-1.1-0.4-3-1.3-4.3-5.9c-0.2-0.8-0.8-1.3-1.6-1.4C30.7,22.4,30.7,22.1,30.7,21.7   z"/><path class="st0" d="M73,44.7c-0.8-5.4-3.5-8.9-8-10.5c0.3-0.5,0.5-1.1,0.7-1.7c0.8-0.4,1.4-1.2,1.6-2.1c0.3-1.2,0.3-2.2,0.1-3.2   c-0.2-0.8-0.7-1.6-1.4-2c-1.2-5.2-5.5-5.2-7.4-5.2c-1.9,0-6.2,0-7.4,5.2c-0.1,0.1-0.2,0.1-0.2,0.2c-0.5,0.5-0.9,1.1-1.1,1.8   c-0.2,1-0.2,2,0,3c0.2,1,0.8,1.8,1.7,2.2c0.2,0.6,0.4,1.2,0.7,1.7c-1.9,0.6-3.5,1.6-4.7,3C44.7,35.8,41.2,35,37,35   c-4.2,0-7.7,0.8-10.4,2.3c-1.3-1.4-2.8-2.4-4.8-3c0.3-0.5,0.5-1.1,0.7-1.7c0.8-0.4,1.4-1.2,1.7-2.1c0.3-1.1,0.3-2.2,0.1-3.2   c-0.2-0.8-0.7-1.5-1.4-2c-1.2-5.2-5.5-5.2-7.4-5.2c-1.9,0-6.2,0-7.4,5.2c-0.1,0.1-0.2,0.1-0.2,0.2c-0.5,0.5-0.9,1.1-1.1,1.8   c-0.2,1-0.2,2,0,3c0.2,1,0.8,1.8,1.7,2.2c0.2,0.6,0.4,1.2,0.7,1.7c-4.5,1.5-7.2,5-8,10.4c-0.1,0.7,0.2,1.4,0.8,1.9   c4.1,3.1,8.5,4.7,13,4.7c1.4,0,2.8-0.2,4.3-0.5c0,0.6-0.1,1.1-0.1,1.7c0,1.8,0.8,5.1,6.2,7.3c3.1,1.3,7.3,2,11.7,2   c8.9,0,18-2.9,18-9.3c0,0,0,0,0-0.1c0-0.5-0.1-1-0.1-1.5c1,0.2,2.1,0.3,3.1,0.3c4.5,0,9.2-1.5,14.1-4.5   C72.7,46.3,73.1,45.5,73,44.7z M37.6,39l1.7,10.1L37,51.5l-2.3-2.4L36.4,39c0.2,0,0.4,0,0.6,0C37.2,39,37.4,39,37.6,39z M5.2,44.1   c0.9-4,3.2-6,7.4-6.6c0.8-0.1,1.4-0.6,1.6-1.4c0.2-0.7,0-1.5-0.5-2.1c-0.8-0.8-1.4-2-1.9-3.8c-0.2-0.7-0.7-1.2-1.3-1.4   c0-0.1,0-0.3,0-0.4c0.6-0.3,1.1-0.9,1.2-1.6c0.3-2.7,1.2-2.9,3.7-2.9c2.5,0,3.3,0.2,3.7,2.9c0.1,0.7,0.6,1.3,1.3,1.6   c0,0.1,0,0.2,0,0.4c-0.6,0.2-1.2,0.7-1.3,1.4c-0.5,1.7-1.1,3-1.9,3.8c-0.5,0.5-0.7,1.3-0.5,2.1c0.2,0.7,0.9,1.3,1.6,1.4   c2.3,0.3,3.9,1,5.2,2.2c-1.7,1.8-2.9,4-3.6,6.8C14.6,48,9.8,47.3,5.2,44.1z M37,57.8c-7.7,0-14-2.4-14-5.2c0.2-7.9,3-11.9,9.2-13.2   l-1.7,10c-0.1,0.6,0.1,1.2,0.5,1.7l4.4,4.7c0.4,0.4,0.9,0.6,1.5,0.6c0,0,0,0,0,0c0.6,0,1.1-0.2,1.5-0.6l4.4-4.7   c0.4-0.5,0.6-1.1,0.5-1.7l-1.7-10c6.3,1.2,9,5.3,9.2,13.1C50.9,55.5,44.7,57.8,37,57.8z M54.3,46.8c-0.7-2.9-1.9-5.2-3.6-7.1   c1.2-1.2,2.9-1.9,5.1-2.2c0.8-0.1,1.4-0.6,1.6-1.4c0.2-0.7,0-1.5-0.5-2.1c-0.8-0.8-1.4-2-1.9-3.8c-0.2-0.7-0.7-1.2-1.3-1.4   c0-0.1,0-0.3,0-0.4c0.6-0.3,1.1-0.9,1.2-1.6c0.3-2.7,1.2-2.9,3.7-2.9c2.5,0,3.3,0.2,3.7,2.9c0.1,0.7,0.6,1.3,1.3,1.6   c0,0.1,0,0.2,0,0.4c-0.6,0.2-1.2,0.7-1.3,1.4c-0.5,1.7-1.1,3-1.9,3.8c-0.5,0.5-0.7,1.3-0.5,2.1c0.2,0.7,0.9,1.3,1.6,1.4   c4.2,0.6,6.5,2.5,7.4,6.5C63.6,47,58.8,47.9,54.3,46.8z"/></g></svg>